<svg id="Layer_1" height="512" viewBox="0 0 55 55" width="512" xmlns="http://www.w3.org/2000/svg" data-name="Layer 1"><path d="m49.69 40.35a.93.93 0 0 1 -.23 0 .76.76 0 0 1 -.49-.94 32.85 32.85 0 0 0 .23-18.56 20.4 20.4 0 0 0 -8.39-11.4.75.75 0 0 1 -.39-.66.76.76 0 0 1 1.08-.67l.1.05a21.87 21.87 0 0 1 9 12.22 34.45 34.45 0 0 1 -.24 19.43.75.75 0 0 1 -.67.53z"/><path d="m5.3 40.52a.75.75 0 0 1 -.71-.52 34.88 34.88 0 0 1 -.19-19.61 21.78 21.78 0 0 1 9-12.2.75.75 0 0 1 1 1.12l-.11.09a20.32 20.32 0 0 0 -8.45 11.41 33.27 33.27 0 0 0 .16 18.73.75.75 0 0 1 -.48.94.67.67 0 0 1 -.22.04z"/><path d="m47.78 38.57h-.15a.74.74 0 0 1 -.58-.88 33.34 33.34 0 0 0 .85-6c0-7.94-3.34-15.12-8.95-19.2a.75.75 0 1 1 .88-1.21c6 4.36 9.57 12 9.57 20.41a36.81 36.81 0 0 1 -.88 6.31.76.76 0 0 1 -.74.57z"/><path d="m7.26 38.59a.75.75 0 0 1 -.73-.59 34.45 34.45 0 0 1 -.9-6.37c0-8.42 3.59-16 9.59-20.41a.75.75 0 1 1 .89 1.21c-5.62 4.08-9 11.26-9 19.2a32.85 32.85 0 0 0 .89 6.05.75.75 0 0 1 -.58.89z"/><path d="m38.15 12.84a3.85 3.85 0 0 1 -1.77-.43 19.57 19.57 0 0 0 -8.84-2.05 19.14 19.14 0 0 0 -8.85 2 3.79 3.79 0 0 1 -5.45-4.23 3.88 3.88 0 0 1 2-2.54 26.47 26.47 0 0 1 12-2.88h.34a27.52 27.52 0 0 1 12.24 2.9 3.83 3.83 0 0 1 2 2.53 3.74 3.74 0 0 1 -.62 3.09l-.63-.41.6.44a3.73 3.73 0 0 1 -3.02 1.58zm-10.63-4a21.11 21.11 0 0 1 9.52 2.21 2.28 2.28 0 0 0 2.96-.63 2.24 2.24 0 0 0 .37-1.86 2.33 2.33 0 0 0 -1.21-1.56 26.65 26.65 0 0 0 -11.62-2.75 25.51 25.51 0 0 0 -11.64 2.75 2.36 2.36 0 0 0 -1.22 1.55 2.27 2.27 0 0 0 .38 1.89 2.29 2.29 0 0 0 2.92.66 20.63 20.63 0 0 1 9.54-2.24z"/><path d="m9.11 47.24a5 5 0 0 1 -4.74-4l-.14-.72a4.9 4.9 0 0 1 3.13-5.52.8.8 0 0 1 .64 0 .75.75 0 0 1 .36.52l1.49 8.8a.77.77 0 0 1 -.17.62.78.78 0 0 1 -.57.3zm-2.06-8.42a3.39 3.39 0 0 0 -1.36 3.39l.14.72a3.43 3.43 0 0 0 2.37 2.66z"/><path d="m14.1 52.13a4.82 4.82 0 0 1 -3-1 7.5 7.5 0 0 1 -2.8-4.64l-1.3-7.74a7.52 7.52 0 0 1 1-5.25l.32-.5a4.89 4.89 0 0 1 3.17-2.16l1.51-.28a.76.76 0 0 1 .87.62l3.2 19a.7.7 0 0 0 .11.27.74.74 0 0 1 .09.69.76.76 0 0 1 -.53.47l-1.61.39a5.15 5.15 0 0 1 -1.03.13zm-1.55-20-.78.14a3.35 3.35 0 0 0 -2.18 1.49l-.32.49a6 6 0 0 0 -.83 4.2l1.38 7.72a6 6 0 0 0 2.23 3.72 3.35 3.35 0 0 0 2.75.62l.81-.19z"/><path d="m17.73 52.25a2.13 2.13 0 0 1 -2.11-1.81l-3.2-19a.28.28 0 0 0 0-.09 2.15 2.15 0 0 1 3.38-2 2.1 2.1 0 0 1 .87 1.39l3.19 19.06a2.17 2.17 0 0 1 -.37 1.6 2.12 2.12 0 0 1 -1.39.87 2.19 2.19 0 0 1 -.37-.02zm-3.82-21 3.19 19a.7.7 0 0 0 .11.27.64.64 0 0 0 .63.26.65.65 0 0 0 .42-.26.63.63 0 0 0 .11-.48l-3.19-19.1a.65.65 0 0 0 -.26-.42.63.63 0 0 0 -.48-.11.65.65 0 0 0 -.54.75.19.19 0 0 1 .01.08z"/><path d="m46 47.24a.77.77 0 0 1 -.57-.26.74.74 0 0 1 -.17-.62l1.49-8.8a.75.75 0 0 1 .36-.52.77.77 0 0 1 .63-.06 4.89 4.89 0 0 1 3.16 5.5l-.15.74a4.94 4.94 0 0 1 -4.74 4zm2-8.42-1.15 6.77a3.45 3.45 0 0 0 2.37-2.65l.14-.74a3.38 3.38 0 0 0 -1.36-3.38z"/><path d="m41 52.13a5.05 5.05 0 0 1 -1-.13l-1.65-.38a.76.76 0 0 1 -.53-.47.71.71 0 0 1 .09-.69.7.7 0 0 0 .1-.26l3.21-19a.76.76 0 0 1 .87-.62l1.53.29a4.88 4.88 0 0 1 3.15 2.13l.31.49a7.42 7.42 0 0 1 1 5.25l-1.38 7.74a7.44 7.44 0 0 1 -2.7 4.64 4.86 4.86 0 0 1 -3 1.01zm-1.51-1.76.82.19a3.31 3.31 0 0 0 2.69-.63 6 6 0 0 0 2.23-3.71l1.38-7.73a6 6 0 0 0 -.84-4.19l-.31-.48a3.32 3.32 0 0 0 -2.19-1.5l-.77-.14z"/><path d="m37.36 52.25a2.19 2.19 0 0 1 -.36 0 2.15 2.15 0 0 1 -1.76-2.47l3.19-19.06a2.08 2.08 0 0 1 .87-1.39 2.14 2.14 0 0 1 3.37 2 .19.19 0 0 1 0 .08l-3.2 19a2.11 2.11 0 0 1 -2.1 1.8zm3.18-21.85a.63.63 0 0 0 -.63.54l-3.19 19.06a.63.63 0 0 0 .11.48.65.65 0 0 0 .41.26.64.64 0 0 0 .63-.27.6.6 0 0 0 .1-.25l3.2-19v-.07a.64.64 0 0 0 -.53-.75z"/></svg>